<?xml version="1.0" standalone="no"?>
<!DOCTYPE svg PUBLIC "-//W3C//DTD SVG 20010904//EN"
 "http://www.w3.org/TR/2001/REC-SVG-20010904/DTD/svg10.dtd">
<svg version="1.0" xmlns="http://www.w3.org/2000/svg"
 width="24.000000pt" height="24.000000pt" viewBox="0 0 24.000000 24.000000"
 preserveAspectRatio="xMidYMid meet">

<g transform="translate(0.000000,24.000000) scale(0.100000,-0.100000)"
fill="#000000" stroke="none">
<path d="M4 227 c-2 -7 -3 -60 -2 -118 l3 -104 115 0 115 0 3 89 c3 85 2 90
-24 118 -26 27 -32 28 -116 28 -64 0 -90 -4 -94 -13z m44 -35 l3 -32 60 0 c58
0 60 1 66 30 l6 31 24 -23 c22 -20 24 -29 21 -103 -3 -74 -5 -80 -25 -83 -21
-3 -23 1 -23 36 0 67 -5 72 -71 72 l-58 0 -3 -52 c-2 -39 -7 -53 -18 -53 -12
0 -16 18 -18 94 -1 52 0 101 3 109 9 23 30 7 33 -26z m82 8 c0 -28 -3 -30 -35
-30 -32 0 -35 2 -35 30 0 28 3 30 35 30 32 0 35 -2 35 -30z m27 -17 c-3 -10
-5 -2 -5 17 0 19 2 27 5 18 2 -10 2 -26 0 -35z m-2 -83 c4 -6 -13 -10 -45 -10
-32 0 -49 4 -45 10 3 6 24 10 45 10 21 0 42 -4 45 -10z m5 -55 l0 -35 -50 0
-50 0 0 35 0 35 50 0 50 0 0 -35z"/>
</g>
</svg>
